<svg width="97" height="96" viewBox="0 0 97 96" fill="none" xmlns="http://www.w3.org/2000/svg">
<rect x="0.5" width="96" height="96" rx="48" fill="#282828"/>
<path d="M74.0278 50.1663C73.6421 45.8367 73.0067 44.9935 72.7667 44.6763C72.2149 43.9435 71.3321 43.4646 70.3978 42.9621C70.3449 42.9341 70.2993 42.8943 70.2645 42.8457C70.2297 42.7971 70.2067 42.7411 70.1972 42.6821C70.1878 42.6231 70.1921 42.5627 70.21 42.5056C70.2279 42.4486 70.2588 42.3965 70.3003 42.3535C70.4733 42.178 70.6063 41.9672 70.6901 41.7354C70.7738 41.5037 70.8064 41.2565 70.7856 41.011C70.7453 40.5756 70.5429 40.1712 70.2184 39.8781C69.8939 39.5849 69.4711 39.4245 69.0338 39.4285H67.3624C67.2908 39.4289 67.2192 39.4336 67.1481 39.4424C67.0993 39.4213 67.0488 39.4044 66.9971 39.3921C66.0071 37.2996 64.6517 34.4346 61.8424 33.0363C57.6756 30.9642 49.9999 30.8571 48.4999 30.8571C46.9999 30.8571 39.3242 30.9642 35.1628 33.0331C32.3535 34.4313 30.9981 37.2963 30.0081 39.3888L29.9996 39.406C29.9502 39.4129 29.9017 39.4251 29.8549 39.4424C29.7838 39.4336 29.7123 39.4289 29.6406 39.4285H27.966C27.5287 39.4245 27.1059 39.5849 26.7815 39.8781C26.457 40.1712 26.2545 40.5756 26.2142 41.011C26.1952 41.256 26.2293 41.5022 26.3141 41.7327C26.399 41.9633 26.5327 42.1729 26.706 42.3471C26.7475 42.3901 26.7783 42.4422 26.7962 42.4992C26.8141 42.5562 26.8185 42.6167 26.8091 42.6757C26.7996 42.7347 26.7766 42.7907 26.7418 42.8393C26.7069 42.8879 26.6613 42.9277 26.6085 42.9556C25.6742 43.4613 24.7871 43.9403 24.2396 44.6699C23.9996 44.9913 23.3653 45.8303 22.9785 50.1599C22.7642 52.5963 22.7321 55.1185 22.9003 56.7428C23.2528 60.1178 23.9138 62.1578 23.9417 62.2424C24.0431 62.5504 24.2299 62.8234 24.4802 63.0295C24.7306 63.2357 25.0342 63.3666 25.356 63.4071V63.4285C25.356 63.8831 25.5366 64.3192 25.8581 64.6407C26.1796 64.9622 26.6156 65.1428 27.0703 65.1428H33.0703C33.5249 65.1428 33.961 64.9622 34.2825 64.6407C34.604 64.3192 34.7846 63.8831 34.7846 63.4285C35.7071 63.4285 36.3488 63.2635 37.0292 63.0878C38.0115 62.8231 39.0155 62.647 40.0292 62.5617C43.2981 62.2499 46.5488 62.1428 48.4999 62.1428C50.4113 62.1428 53.8056 62.2499 57.0799 62.5617C58.0976 62.6472 59.1056 62.824 60.0917 63.0899C60.7431 63.2571 61.3613 63.4113 62.2174 63.4274C62.2174 63.8821 62.398 64.3181 62.7195 64.6396C63.041 64.9611 63.477 65.1417 63.9317 65.1417H69.9317C70.3864 65.1417 70.8224 64.9611 71.1439 64.6396C71.4654 64.3181 71.646 63.8821 71.646 63.4274V63.4146C71.9685 63.3748 72.2731 63.2443 72.5243 63.0381C72.7754 62.8319 72.9628 62.5585 73.0646 62.2499C73.0924 62.1653 73.7535 60.1253 74.106 56.7503C74.2742 55.1249 74.2442 52.6071 74.0278 50.1663ZM33.1067 40.8546C33.9638 39.0331 34.9442 36.9717 36.6896 36.1028C39.2117 34.8471 44.4392 34.2813 48.4999 34.2813C52.5606 34.2813 57.7881 34.8428 60.3103 36.1028C62.0556 36.9717 63.0317 39.0342 63.8931 40.8546L64.0003 41.0871C64.0629 41.2194 64.0906 41.3656 64.0807 41.5117C64.0708 41.6578 64.0237 41.799 63.9437 41.9217C63.8638 42.0444 63.7537 42.1445 63.6241 42.2126C63.4945 42.2807 63.3495 42.3145 63.2031 42.3106C59.6428 42.2142 52.1428 41.9056 48.4999 41.9056C44.8571 41.9056 37.3571 42.2217 33.7913 42.3181C33.645 42.322 33.5 42.2882 33.3704 42.2201C33.2407 42.152 33.1307 42.0519 33.0508 41.9292C32.9708 41.8065 32.9237 41.6653 32.9138 41.5192C32.9039 41.3731 32.9316 41.2269 32.9942 41.0946C33.0317 41.0153 33.0713 40.9349 33.1067 40.8546V40.8546ZM34.3849 49.3863C32.5419 49.6082 30.687 49.7177 28.8306 49.7142C27.6949 49.7142 26.5238 49.3928 26.3063 48.3813C26.1574 47.701 26.1735 47.3185 26.2538 46.9338C26.3213 46.6071 26.4285 46.3692 26.9642 46.2856C28.3571 46.0713 29.136 46.3403 31.416 47.0121C32.9278 47.4567 34.0185 48.0492 34.6399 48.5185C34.9517 48.7499 34.7856 49.3542 34.3849 49.3863V49.3863ZM58.1042 58.1721C56.6942 58.3328 53.8742 58.2738 48.5321 58.2738C43.1899 58.2738 40.371 58.3328 38.961 58.1721C37.506 58.0103 35.6513 56.6346 36.9178 55.4088C37.761 54.601 39.7281 53.9967 42.3478 53.6571C44.9674 53.3174 46.0763 53.1428 48.5213 53.1428C50.9663 53.1428 51.9628 53.2499 54.6949 53.6581C57.4271 54.0663 59.4917 54.6781 60.1249 55.4099C61.2799 56.7213 59.5581 58.0017 58.1042 58.1785V58.1721ZM70.6935 48.3803C70.4792 49.396 69.3006 49.7131 68.1692 49.7131C66.2773 49.7136 64.387 49.6041 62.5078 49.3853C62.1799 49.3542 62.0278 48.7788 62.3599 48.5174C62.9717 48.0363 64.0742 47.4556 65.5838 47.011C67.8638 46.3392 69.1785 46.0703 70.3078 46.2942C70.5831 46.3488 70.7288 46.6446 70.746 46.8299C70.8216 47.346 70.8038 47.8715 70.6935 48.3813V48.3803Z" fill="#FB5555"/>
</svg>
