<svg width="41" height="41" viewBox="0 0 41 41" fill="none" xmlns="http://www.w3.org/2000/svg">
<rect x="0.5" y="0.5" width="40" height="40" rx="20" fill="#282828"/>
<path d="M20.5132 10.9751C18.9316 10.9761 17.7414 11.8018 16.7929 13.4751L12.0608 22.136C11.3284 23.4132 10.9826 24.3113 10.9894 25.2608C11.0045 27.3865 12.7135 29.0627 14.7989 29.0703H26.2274C28.3154 29.0703 30.0291 27.4189 30.037 25.2608C30.0404 24.3141 29.6678 23.3589 28.9357 22.136L24.2632 13.5351C23.3861 11.8598 22.1163 10.9741 20.5132 10.9751ZM20.5132 16.6894C21.0392 16.6894 21.4655 17.1161 21.4655 17.6418V21.4513C21.4655 21.977 21.0392 22.4037 20.5132 22.4037C19.9872 22.4037 19.5608 21.977 19.5608 21.4513V17.6418C19.5608 17.1161 19.9872 16.6894 20.5132 16.6894ZM20.5132 23.3561C21.0392 23.3561 21.4655 23.7827 21.4655 24.3084C21.4655 24.8341 21.0392 25.2608 20.5132 25.2608C19.9872 25.2608 19.5608 24.8341 19.5608 24.3084C19.5608 23.7827 19.9872 23.3561 20.5132 23.3561Z" fill="#FFA41D"/>
</svg>
