<svg width="23" height="24" viewBox="0 0 23 24" fill="none" xmlns="http://www.w3.org/2000/svg">
<path fill-rule="evenodd" clip-rule="evenodd" d="M9.03906 8.15845V10.4573H17.484V15.0651H9.03906C9.03906 15.0651 9.04942 20.4427 9.0482 20.453C9.69843 20.7529 10.3803 20.9795 11.0811 21.1285C15.1866 20.2875 19.0502 16.6743 19.1708 10.2603L19.2118 8.15846L9.03906 8.15845Z" fill="#2D7D2F"/>
<path d="M19.2163 8.15836L19.2959 3.18914C16.5842 2.97962 13.8449 2.87385 11.0781 2.87183C8.31129 2.87183 5.57141 2.9776 2.8584 3.18914L2.90857 7.07375L2.98595 10.2602C2.98595 10.2602 3.01439 13.2158 4.01998 15.3277C4.99053 17.6041 6.78562 19.4337 9.04858 20.4529L9.03883 15.065H17.4835V10.4572H9.03883V8.15836H19.2163Z" fill="#72BF44"/>
</svg>
