<svg width="60" height="20" viewBox="0 0 60 20" fill="none" xmlns="http://www.w3.org/2000/svg">
<path opacity="0.3" fill-rule="evenodd" clip-rule="evenodd" d="M29.3242 0.0300487C32.1278 0.186255 34.4736 0.460968 35.7536 0.783071C36.7369 1.03053 38.6216 1.88476 42.6554 3.91115C46.0178 5.60028 46.6778 5.76555 46.6778 5.76555C46.6778 5.76555 53.7923 7.15063 58.1702 9.25802C58.7136 9.51958 58.7671 9.562 58.8879 9.82595C59.1096 10.3106 59.2344 10.9255 59.1653 11.1917C59.1125 11.3951 59.1231 11.4465 59.2507 11.6061C59.4763 11.8883 59.7377 12.45 59.8492 12.8919C59.9636 13.3459 60.04 14.5165 59.9777 14.8586L59.9363 15.0854L59.6809 14.9928C59.5404 14.9418 59.3937 14.9127 59.3548 14.9281C59.2729 14.9604 59.1707 15.3518 59.1148 15.8477C59.077 16.1835 59.0813 16.197 59.258 16.298C59.3582 16.3553 59.488 16.4772 59.5466 16.569C59.6488 16.7294 59.648 16.7427 59.5279 16.9055C59.449 17.0124 59.3608 17.0652 59.2889 17.0486C59.2263 17.0341 58.9133 17.0223 58.5934 17.0224C58.1369 17.0224 57.8591 17.0643 57.3033 17.2171C56.4452 17.4528 55.7416 17.5384 54.238 17.5901L53.0954 17.6294L53.2533 17.1005C53.3913 16.6382 53.4115 16.4565 53.4138 15.6589C53.416 14.8931 53.3941 14.6663 53.2775 14.2482C52.5637 11.6896 50.1917 10.0186 47.6873 10.3102C45.4627 10.5692 43.687 12.169 43.1477 14.4002C42.971 15.1308 42.975 16.2394 43.1567 16.9434C43.2274 17.2172 43.2852 17.4509 43.2852 17.4627C43.2852 17.4972 34.5027 17.4873 25.1585 17.4422L16.4922 17.4004L16.6115 16.9545C16.7762 16.3389 16.783 14.9943 16.6247 14.3688C16.4942 13.8533 16.1303 13.0207 15.8571 12.6127C14.4668 10.5356 11.8112 9.72702 9.54055 10.6894C7.98158 11.3501 6.78197 12.8358 6.41727 14.5576C6.30576 15.0841 6.31697 16.287 6.43808 16.7914C6.49209 17.0162 6.53146 17.2044 6.52571 17.2097C6.51989 17.215 6.00536 17.1104 5.38231 16.9774C4.75927 16.8443 3.46292 16.6021 2.50151 16.4392L0.753506 16.1429L0.470978 15.7593C0.206944 15.4009 0.183979 15.3385 0.120667 14.8093C0.0239792 14.0006 -0.0313759 12.5407 0.018959 12.1266C0.0511055 11.8624 0.130219 11.6651 0.334309 11.3406C0.750935 10.678 0.835373 10.3817 0.944977 9.19609C1.0631 7.91857 1.17093 7.25271 1.38242 6.49522C1.56239 5.85045 1.55057 5.71929 1.28114 5.37075C1.17931 5.23915 1.09604 5.09333 1.09604 5.04689C1.09604 4.90578 1.40379 4.87167 1.98385 4.94839C2.69286 5.04223 2.99425 5.13103 2.99425 5.24608C2.99425 5.44942 4.25031 5.31468 5.44355 4.98332C6.37 4.7261 7.3886 4.38222 9.15491 3.73059C10.0605 3.39647 11.4848 2.87102 12.3201 2.56282C15.2153 1.49468 17.5989 0.787729 19.3998 0.463045C20.3559 0.290664 21.7933 0.144528 23.4459 0.0516985C24.4511 -0.00475459 28.4359 -0.0194186 29.3242 0.0300487ZM49.0105 11.3422C51.0317 11.7474 52.4725 13.5301 52.4692 15.6218C52.4663 17.5015 51.3253 19.1537 49.5915 19.7891C48.981 20.0127 47.9839 20.0664 47.3083 19.9119C46.0166 19.6166 44.9767 18.7471 44.3888 17.471C43.8125 16.2201 43.8256 14.9829 44.4288 13.7079C44.6653 13.208 44.7979 13.0214 45.2384 12.5688C46.0454 11.7396 46.9022 11.3459 48.0308 11.2857C48.3665 11.2677 48.7493 11.2898 49.0105 11.3422ZM12.3322 11.3422C13.7063 11.6177 14.8099 12.5085 15.4202 13.8349C15.8572 14.7847 15.9138 16.0257 15.5669 17.0509C15.1348 18.3282 14.1626 19.3312 12.9132 19.7891C12.3039 20.0124 11.3056 20.0664 10.6328 19.9126C9.75958 19.7129 8.81146 19.1171 8.27745 18.4325C8.12706 18.2397 7.88372 17.8271 7.73676 17.5155C7.13234 16.2347 7.13681 15.0052 7.75048 13.7079C7.98702 13.208 8.11965 13.0214 8.56009 12.5688C9.36714 11.7396 10.224 11.3459 11.3525 11.2857C11.6882 11.2677 12.071 11.2898 12.3322 11.3422Z" fill="#72BF44"/>
</svg>
