<svg width="209" height="266" viewBox="0 0 209 266" fill="none" xmlns="http://www.w3.org/2000/svg">
<rect x="97" y="156" width="16" height="110" fill="url(#paint0_linear_2501_58490)"/>
<rect x="97" y="156" width="16" height="110" fill="url(#paint1_linear_2501_58490)"/>
<g filter="url(#filter0_d_2501_58490)">
<path fill-rule="evenodd" clip-rule="evenodd" d="M102.148 22.3233C100.303 22.8826 98.6482 23.9035 97.2924 25.3193C95.4722 27.2194 25.3413 163.007 24.742 165.791C23.5597 171.284 26.8417 177.72 31.6961 179.427C33.0581 179.906 45.0421 180 104.854 180C175.087 180 176.413 179.985 178.028 179.187C183.135 176.664 185.787 169.948 183.882 164.358C183.27 162.564 115.703 31.5581 113.235 27.3818C110.828 23.3082 106.066 21.1359 102.148 22.3233ZM136.247 102.73C153.513 136.211 167.704 163.798 167.783 164.034C167.882 164.329 148.054 164.463 104.437 164.463H40.9479L45.2813 156.073C90.2285 69.0513 104.362 41.8267 104.585 41.8399C104.733 41.8486 118.981 69.2494 136.247 102.73Z" fill="#DB3831"/>
<path d="M177.747 170.12L104.97 30.4936L32.4015 170.12H177.747Z" fill="white"/>
</g>
<path d="M88.6801 147.6H84.3801V155H77.0301V147.6H61.7801V142.35L77.4301 119.3H84.3801V141.75H88.6801V147.6ZM77.0301 135.7C77.0301 135.133 77.0301 134.467 77.0301 133.7C77.0634 132.9 77.0967 132.117 77.1301 131.35C77.1634 130.55 77.1967 129.85 77.2301 129.25C77.2634 128.617 77.2967 128.183 77.3301 127.95H77.1301C76.8301 128.617 76.5134 129.267 76.1801 129.9C75.8467 130.533 75.4467 131.183 74.9801 131.85L68.4301 141.75H77.0301V135.7ZM115.943 137.15C115.943 140.017 115.71 142.583 115.243 144.85C114.81 147.117 114.093 149.05 113.093 150.65C112.127 152.217 110.843 153.417 109.243 154.25C107.677 155.083 105.743 155.5 103.443 155.5C100.577 155.5 98.2267 154.767 96.3934 153.3C94.56 151.833 93.1934 149.733 92.2934 147C91.4267 144.267 90.9934 140.983 90.9934 137.15C90.9934 133.283 91.3934 129.983 92.1934 127.25C92.9934 124.517 94.31 122.417 96.1434 120.95C97.9767 119.483 100.41 118.75 103.443 118.75C106.31 118.75 108.66 119.483 110.493 120.95C112.327 122.383 113.693 124.483 114.593 127.25C115.493 129.983 115.943 133.283 115.943 137.15ZM98.4934 137.15C98.4934 139.85 98.6434 142.117 98.9434 143.95C99.2434 145.75 99.7434 147.117 100.443 148.05C101.177 148.95 102.177 149.4 103.443 149.4C104.71 149.4 105.693 148.95 106.393 148.05C107.127 147.15 107.643 145.8 107.943 144C108.277 142.167 108.443 139.883 108.443 137.15C108.443 134.417 108.277 132.15 107.943 130.35C107.643 128.517 107.127 127.15 106.393 126.25C105.693 125.317 104.71 124.85 103.443 124.85C102.177 124.85 101.177 125.317 100.443 126.25C99.7434 127.15 99.2434 128.517 98.9434 130.35C98.6434 132.15 98.4934 134.417 98.4934 137.15ZM145.207 147.6H140.907V155H133.557V147.6H118.307V142.35L133.957 119.3H140.907V141.75H145.207V147.6ZM133.557 135.7C133.557 135.133 133.557 134.467 133.557 133.7C133.59 132.9 133.623 132.117 133.657 131.35C133.69 130.55 133.723 129.85 133.757 129.25C133.79 128.617 133.823 128.183 133.857 127.95H133.657C133.357 128.617 133.04 129.267 132.707 129.9C132.373 130.533 131.973 131.183 131.507 131.85L124.957 141.75H133.557V135.7Z" fill="#17191A"/>
<defs>
<filter id="filter0_d_2501_58490" x="0.5" y="0" width="208" height="206" filterUnits="userSpaceOnUse" color-interpolation-filters="sRGB">
<feFlood flood-opacity="0" result="BackgroundImageFix"/>
<feColorMatrix in="SourceAlpha" type="matrix" values="0 0 0 0 0 0 0 0 0 0 0 0 0 0 0 0 0 0 127 0" result="hardAlpha"/>
<feOffset dy="2"/>
<feGaussianBlur stdDeviation="12"/>
<feComposite in2="hardAlpha" operator="out"/>
<feColorMatrix type="matrix" values="0 0 0 0 0 0 0 0 0 0 0 0 0 0 0 0 0 0 0.24 0"/>
<feBlend mode="normal" in2="BackgroundImageFix" result="effect1_dropShadow_2501_58490"/>
<feBlend mode="normal" in="SourceGraphic" in2="effect1_dropShadow_2501_58490" result="shape"/>
</filter>
<linearGradient id="paint0_linear_2501_58490" x1="113" y1="211.379" x2="97" y2="211.379" gradientUnits="userSpaceOnUse">
<stop stop-color="#C4C4C4"/>
<stop offset="1" stop-color="#D8D8D8"/>
</linearGradient>
<linearGradient id="paint1_linear_2501_58490" x1="105" y1="156" x2="105" y2="234.517" gradientUnits="userSpaceOnUse">
<stop stop-color="#191919" stop-opacity="0"/>
<stop offset="1" stop-color="#191919"/>
</linearGradient>
</defs>
</svg>
