<svg width="188" height="34" viewBox="0 0 188 34" fill="none" xmlns="http://www.w3.org/2000/svg">
<path fill-rule="evenodd" clip-rule="evenodd" d="M11.2148 10.0034V14.1907H26.5382V22.5837H11.2148C11.2148 22.5837 11.2336 32.3787 11.2314 32.3975C12.4113 32.9438 13.6486 33.3565 14.9202 33.6279C22.3696 32.0962 29.3801 25.5148 29.599 13.8319L29.6735 10.0034L11.2148 10.0034Z" fill="#2D7D2F"/>
<path d="M29.6816 10.0034L29.8261 0.952121C24.9056 0.570488 19.9351 0.377829 14.9147 0.374146C9.89435 0.374146 4.92279 0.566804 0 0.952121L0.0910308 8.02781L0.231447 13.8319C0.231447 13.8319 0.283043 19.2153 2.10771 23.0622C3.86879 27.2086 7.126 30.5411 11.2322 32.3975L11.2145 22.5837H26.5375V14.1907H11.2145V10.0034H29.6816Z" fill="#72BF44"/>
<path d="M44.263 6.80054V8.9802H48.854V11.4155H44.263V15.4963H41.2656V4.36523H49.2421V6.80054H44.263Z" fill="#231F20"/>
<path d="M57.5319 12.5425H55.2067V15.4957H52.209V4.3657H57.9981C58.7471 4.35464 59.4936 4.45419 60.2134 4.66113C60.7368 4.82337 61.1785 5.1791 61.4484 5.65574C61.7601 6.3025 61.9023 7.01774 61.862 7.73446C61.874 8.31563 61.8406 8.89684 61.7621 9.47281C61.6932 9.86507 61.4979 10.2241 61.2059 10.495C60.7815 10.8404 60.2749 11.0702 59.7354 11.1622V11.2823C60.2798 11.2722 60.8086 11.4639 61.2199 11.8204C61.4062 12.0083 61.5504 12.2334 61.6432 12.4811C61.7359 12.7287 61.7751 12.9932 61.758 13.2571V15.4957H58.7569V13.939C58.7569 13.0081 58.3486 12.5426 57.5319 12.5425V12.5425ZM55.2067 9.95943H57.5319C57.8238 9.97972 58.1162 9.9268 58.3825 9.80545C58.4696 9.75352 58.5442 9.68296 58.6009 9.59883C58.6575 9.51469 58.6948 9.41908 58.7101 9.31883C58.7637 8.95636 58.7856 8.58993 58.7757 8.22366C58.8165 7.86679 58.7267 7.50723 58.5229 7.21137C58.2382 7.00066 57.8837 6.90658 57.5319 6.94836H55.2067V9.95943Z" fill="#231F20"/>
<path d="M68.0692 6.80054V8.83285H72.8673V10.8939H68.0692V13.0599H73.2878V15.4963H65.0703V4.36523H73.182V6.80054H68.0692Z" fill="#231F20"/>
<path d="M79.6336 6.80054V8.83285H84.4317V10.8939H79.6336V13.0599H84.8522V15.4963H76.6348V4.36523H84.7461V6.80054H79.6336Z" fill="#231F20"/>
<path d="M88.1035 15.4964V4.36599H93.7994C94.681 4.33479 95.5602 4.47865 96.3858 4.78925C97.0266 5.05225 97.5486 5.54118 97.8526 6.16328C98.2015 6.95663 98.364 7.8193 98.3277 8.68516V11.0147C98.356 11.8793 98.2254 12.7417 97.9422 13.5591C97.7077 14.1879 97.2488 14.7077 96.6538 15.0186C95.8875 15.3716 95.0476 15.5354 94.2048 15.4964H88.1035ZM91.1009 6.94939V12.9133H93.7231C94.7336 12.9133 95.2385 12.2805 95.2378 11.0147V8.68516C95.2538 8.31802 95.2007 7.95114 95.0812 7.60362C95.04 7.49034 94.9766 7.38639 94.8948 7.29785C94.813 7.2093 94.7144 7.13793 94.6047 7.08789C94.3228 6.98412 94.0232 6.93704 93.7231 6.94939H91.1009Z" fill="#231F20"/>
<path d="M106.413 15.587C105.686 15.5958 104.959 15.5387 104.242 15.4164C103.673 15.3207 103.128 15.1129 102.64 14.8049C102.174 14.4995 101.808 14.0655 101.585 13.5558C101.315 12.9064 101.188 12.2065 101.212 11.5036V8.35879C101.188 7.65431 101.316 6.95289 101.588 6.30253C101.81 5.79249 102.176 5.35817 102.641 5.05265C103.13 4.74732 103.674 4.54105 104.242 4.44557C105.683 4.21866 107.149 4.21866 108.589 4.44557C109.158 4.54099 109.703 4.74726 110.192 5.05265C110.657 5.35826 111.022 5.79259 111.244 6.30253C111.515 6.9532 111.642 7.65448 111.618 8.35879V11.5036C111.643 12.2063 111.516 12.9062 111.247 13.5558C111.025 14.066 110.659 14.5003 110.194 14.8049C109.705 15.1129 109.159 15.3208 108.589 15.4164C107.871 15.5387 107.142 15.5958 106.413 15.587ZM106.413 13.004C106.846 13.0181 107.28 12.9781 107.703 12.885C107.838 12.8516 107.965 12.7891 108.073 12.7018C108.182 12.6145 108.27 12.5045 108.331 12.3796C108.485 11.9985 108.553 11.5881 108.529 11.178V8.67045C108.539 8.33894 108.502 8.00761 108.417 7.68689C108.36 7.47458 108.236 7.28629 108.064 7.14981C107.878 7.02096 107.664 6.94007 107.44 6.91442C107.099 6.8718 106.756 6.85297 106.413 6.85806C105.985 6.84382 105.557 6.88304 105.139 6.97483C105.006 7.00821 104.882 7.06974 104.776 7.15523C104.669 7.24073 104.582 7.34819 104.521 7.47029C104.363 7.85005 104.288 8.25936 104.302 8.67045V11.178C104.289 11.5904 104.362 12.0011 104.518 12.3833C104.579 12.5066 104.666 12.6153 104.773 12.7019C104.88 12.7885 105.004 12.8509 105.138 12.885C105.556 12.9782 105.985 13.0182 106.413 13.004" fill="#231F20"/>
<path d="M117.443 6.96299L117.744 15.4967H114.746V4.3667H119.496L121.64 11.3543H121.748L123.786 4.3667H128.659V15.4967H125.661L125.961 6.96299H125.854L123.007 15.4967H120.412L117.534 6.96299H117.443Z" fill="#231F20"/>
<path d="M45.0133 21.582V22.5317H42.9587V29.3735H41.7602V22.5317H40.5605V21.582H41.7602V20.4246C41.7602 19.5637 41.9577 18.9625 42.3528 18.621C42.7475 18.2796 43.3894 18.109 44.2784 18.1094L45.0133 18.1543V19.118C44.8001 19.0885 44.5851 19.0735 44.3698 19.073H44.1598C43.9918 19.0542 43.8218 19.0702 43.6604 19.1202C43.499 19.1701 43.3497 19.2529 43.2218 19.3633C43.0202 19.6452 42.9268 19.9903 42.9587 20.3354V21.582L45.0133 21.582Z" fill="#231F20"/>
<path d="M48.217 19.5194H47.0176V18.2434H48.217V19.5194ZM48.217 29.373H47.0176V21.5982H48.217V29.373Z" fill="#231F20"/>
<path d="M52.1122 24.6094V29.3735H50.9141V21.5968H52.0378V22.5907C52.3081 22.1631 52.7148 21.839 53.192 21.6709C53.687 21.5178 54.204 21.4477 54.7219 21.4635C55.7914 21.4635 56.5382 21.6589 56.9623 22.0499C57.3883 22.4404 57.6012 23.165 57.601 24.2237V29.3735H56.401V24.343C56.401 23.5606 56.2813 23.0458 56.042 22.7985C55.8002 22.5505 55.2806 22.4282 54.482 22.4282C53.8483 22.3815 53.2184 22.5601 52.7037 22.9325C52.3109 23.2689 52.1122 23.8273 52.1122 24.6094" fill="#231F20"/>
<path d="M65.6202 25.5737V24.4612C65.6202 23.5218 65.4849 22.9305 65.2144 22.6871C64.9454 22.4451 64.3157 22.324 63.3253 22.3239C62.8244 22.2847 62.3214 22.3635 61.8566 22.5541C61.7124 22.6648 61.6003 22.8119 61.5319 22.9802C61.4634 23.1485 61.441 23.3321 61.4671 23.5119V23.7344H60.2675C60.2675 22.7645 60.562 22.1212 61.1512 21.8045C61.5721 21.5768 62.3167 21.463 63.385 21.463C64.6052 21.463 65.45 21.6165 65.9195 21.9235C66.5194 22.3088 66.8193 23.0708 66.8191 24.2096V29.3731H65.695L65.7403 28.3943C65.5525 28.7959 65.235 29.1226 64.8389 29.3219C64.275 29.486 63.6873 29.5537 63.1008 29.5219C62.0309 29.5219 61.2714 29.3735 60.8221 29.0766C60.2722 28.7115 59.9976 28.0286 59.998 27.028C59.998 26.0894 60.2678 25.4465 60.8074 25.0992C61.247 24.8115 61.9769 24.6681 62.9969 24.669C63.6203 24.6352 64.2451 24.7003 64.8481 24.862C65.1856 24.9942 65.4611 25.2482 65.6202 25.5737V25.5737ZM65.6202 27.1028C65.6202 26.4294 65.4584 26.0084 65.1348 25.8341C64.8112 25.6614 64.1015 25.5745 63.0057 25.5737C62.5443 25.536 62.081 25.618 61.6606 25.8116C61.4946 25.9388 61.3646 26.107 61.2832 26.2996C61.2019 26.4921 61.172 26.7025 61.1966 26.9101C61.1966 27.5636 61.331 28.0087 61.5997 28.2455C62.0172 28.5257 62.5193 28.6518 63.0197 28.6021C63.6485 28.64 64.2792 28.5746 64.8868 28.4083C65.3766 28.2101 65.6202 27.7762 65.6202 27.1028Z" fill="#231F20"/>
<path d="M70.706 24.6093V29.3734H69.5078V21.5967H70.6315V22.5906C70.9019 22.163 71.3085 21.8389 71.7858 21.6708C72.2808 21.5176 72.7977 21.4475 73.3156 21.4634C74.3851 21.4634 75.1319 21.6589 75.556 22.0498C75.9806 22.4403 76.1934 23.1649 76.1943 24.2236V29.3734H74.9944V24.343C74.9944 23.5605 74.8731 23.0463 74.6343 22.7984C74.394 22.5505 73.8743 22.4282 73.0753 22.4282C72.4417 22.3811 71.8119 22.5598 71.2975 22.9325C70.9035 23.2688 70.7063 23.8277 70.706 24.6093" fill="#231F20"/>
<path d="M84.2891 26.5541H85.4434C85.4434 27.7219 85.1783 28.5188 84.648 28.9449C84.1689 29.3291 83.3044 29.5214 82.0546 29.5218C80.7455 29.5218 79.8565 29.2397 79.3874 28.6756C78.9157 28.1127 78.6804 27.054 78.6816 25.4995C78.6816 23.9564 78.914 22.8982 79.3786 22.3249C79.8437 21.7513 80.7257 21.4646 82.0247 21.4647C83.1145 21.4647 83.9092 21.6228 84.4089 21.9388C85.0081 22.3131 85.3092 22.9629 85.3092 23.8827V24.1343H84.1689C84.1689 23.4808 84.0433 23.0432 83.7934 22.8141C83.5026 22.5573 82.9105 22.4286 82.017 22.428C81.1343 22.428 80.5574 22.6161 80.2863 22.9924C80.0169 23.3685 79.8816 24.1945 79.8805 25.4704C79.8805 26.7269 80.0233 27.5558 80.3088 27.9569C80.5959 28.3562 81.1749 28.5588 82.0461 28.5588C82.9701 28.5588 83.5748 28.4271 83.8605 28.1636C84.1461 27.902 84.289 27.3656 84.2891 26.5542" fill="#231F20"/>
<path d="M94.5357 25.7084H88.8981C88.8981 26.8861 89.0396 27.6599 89.3227 28.0299C89.6061 28.4015 90.2075 28.5868 91.1322 28.5868C92.0536 28.5868 92.6519 28.5005 92.927 28.3279C93.2001 28.1537 93.3364 27.7949 93.3358 27.2515V26.9984H94.5357C94.5357 28.0372 94.2457 28.7352 93.6656 29.0922C93.2049 29.3788 92.3605 29.522 91.1322 29.5218C89.8121 29.5218 88.9101 29.2397 88.4264 28.6756C87.941 28.1124 87.6986 27.0441 87.6992 25.4708C87.6992 23.9664 87.9588 22.9226 88.478 22.3396C88.9976 21.7554 89.8772 21.4629 91.1167 21.4622C92.3355 21.4622 93.2103 21.7346 93.7412 22.2796C94.27 22.824 94.5349 23.7688 94.5357 25.1138V25.7084ZM93.3358 24.8026C93.3358 23.9026 93.1764 23.2769 92.8577 22.9253C92.5379 22.5736 91.9563 22.3986 91.109 22.3986C90.2621 22.3986 89.6819 22.5742 89.3684 22.9253C89.0547 23.2757 88.898 23.9014 88.8981 24.8026H93.3358Z" fill="#231F20"/>
<path d="M182.215 9.48926V16.4585H182.732L185.784 13.0857H187.335L183.734 16.9385L188 21.4621H186.317L182.732 17.4339H182.215V21.4621H180.94V9.48926H182.215ZM172.603 16.3307V21.4621H171.311V13.0857H172.524V14.1565C172.789 13.711 173.201 13.371 173.688 13.1943C174.246 13.0143 174.829 12.9289 175.415 12.9416C175.908 12.9306 176.4 12.9802 176.88 13.0894C177.231 13.1666 177.556 13.332 177.825 13.5701C178.081 13.8173 178.263 14.1316 178.349 14.477C178.47 14.9465 178.525 15.4305 178.513 15.9152V21.4621H177.222V16.04C177.24 15.6015 177.186 15.163 177.061 14.7423C177.012 14.6049 176.932 14.4803 176.829 14.3773C176.726 14.2743 176.601 14.1955 176.463 14.1466C176.039 14.0175 175.597 13.9613 175.154 13.9805C174.472 13.9304 173.794 14.126 173.243 14.5319C172.816 14.8977 172.602 15.4973 172.603 16.3307V16.3307ZM167.883 17.3702V16.1701C167.909 15.6564 167.847 15.1421 167.698 14.6498C167.642 14.4991 167.551 14.3637 167.433 14.2549C167.315 14.1461 167.173 14.0669 167.018 14.0239C166.493 13.8986 165.953 13.8464 165.413 13.8689C165.01 13.8579 164.607 13.8919 164.212 13.9702C163.975 14.0152 163.763 14.1485 163.62 14.3433C163.479 14.5876 163.406 14.8656 163.41 15.1478L163.427 15.3906H162.114C162.071 14.8195 162.218 14.2501 162.533 13.7716C162.807 13.418 163.2 13.1764 163.639 13.092C164.245 12.9788 164.861 12.9285 165.478 12.9417C166.18 12.9233 166.881 12.9929 167.566 13.1491C168.057 13.2689 168.484 13.5724 168.758 13.997C169.073 14.5793 169.218 15.2384 169.176 15.899V21.4621H167.962L168.01 20.4075C167.856 20.7099 167.643 20.9782 167.383 21.1962C167.138 21.3758 166.853 21.493 166.552 21.5376C166.094 21.6011 165.631 21.6291 165.168 21.6213C164.543 21.638 163.919 21.5698 163.313 21.4187C162.862 21.3011 162.471 21.0201 162.216 20.6303C161.926 20.1148 161.791 19.5265 161.827 18.9362C161.794 18.3794 161.928 17.8253 162.213 17.3456C162.469 16.9717 162.853 16.7032 163.292 16.5897C163.869 16.4458 164.463 16.3801 165.058 16.3944C165.57 16.3842 166.082 16.4173 166.589 16.4932C166.882 16.5302 167.164 16.6316 167.413 16.7901C167.613 16.9447 167.773 17.1432 167.883 17.3702V17.3702ZM167.9 19.0158C167.928 18.6356 167.848 18.2551 167.669 17.9188C167.572 17.7951 167.451 17.692 167.314 17.6156C167.177 17.5393 167.026 17.4911 166.87 17.4741C166.275 17.3905 165.675 17.3557 165.074 17.3702C164.557 17.332 164.039 17.4332 163.575 17.6631C163.27 17.8583 163.12 18.2414 163.12 18.8084C163.101 19.1894 163.17 19.5697 163.322 19.9197C163.45 20.1791 163.674 20.378 163.947 20.4738C164.316 20.5905 164.702 20.6434 165.089 20.6303C165.613 20.6383 166.136 20.6103 166.656 20.5467C166.996 20.5068 167.314 20.3548 167.558 20.1146C167.812 19.8073 167.935 19.4127 167.9 19.0157V19.0158ZM157.191 21.4621H151.025V9.48928H156.853C157.911 9.48928 158.688 9.71644 159.184 10.1708C159.677 10.6264 159.924 11.3858 159.925 12.4488C159.932 12.8701 159.899 13.2912 159.825 13.706C159.76 14.0293 159.61 14.3296 159.391 14.5761C159.119 14.8577 158.78 15.0657 158.406 15.1806C158.839 15.2803 159.243 15.4762 159.59 15.7538C159.858 15.9874 160.049 16.2972 160.137 16.642C160.242 17.0952 160.29 17.5597 160.28 18.0248C160.28 19.1587 160.044 20.015 159.572 20.5939C159.101 21.1722 158.307 21.4616 157.191 21.4621ZM152.366 10.6714V14.7161H156.21C156.69 14.7338 157.17 14.6715 157.629 14.5319C157.787 14.4792 157.932 14.3947 158.056 14.2835C158.18 14.1722 158.28 14.0368 158.349 13.8854C158.515 13.4644 158.589 13.013 158.568 12.5611C158.568 11.8307 158.435 11.3322 158.175 11.0685C157.913 10.8044 157.421 10.6714 156.695 10.6714H152.366ZM152.366 15.8835V20.2638H156.097C156.554 20.2704 157.012 20.2469 157.467 20.1934C157.763 20.1612 158.047 20.062 158.299 19.9035C158.525 19.747 158.691 19.519 158.772 19.2563C158.885 18.8786 158.936 18.4851 158.923 18.0911C158.948 17.603 158.881 17.1145 158.727 16.6508C158.671 16.5057 158.583 16.375 158.47 16.2683C158.357 16.1617 158.221 16.0819 158.073 16.0349C157.611 15.9157 157.135 15.8647 156.659 15.8835L152.366 15.8835Z" fill="#231F20"/>
<path d="M140.517 0H139.51V34H140.517V0Z" fill="#C5C9CA"/>
</svg>
