<svg width="173" height="164" viewBox="0 0 173 164" fill="none" xmlns="http://www.w3.org/2000/svg">
<rect width="172" height="164" transform="translate(0.5)" fill="#1A1A1A"/>
<g filter="url(#filter0_d_4585_65986)">
<path d="M49.5 18H27.5C20.3203 18 14.5 23.8203 14.5 31V54" stroke="#72BF44" stroke-width="3"/>
</g>
<g filter="url(#filter1_d_4585_65986)">
<path d="M159.5 53V31C159.5 23.8203 153.68 18 146.5 18H123.5" stroke="#72BF44" stroke-width="3"/>
</g>
<g filter="url(#filter2_d_4585_65986)">
<path d="M14.5 110V132C14.5 139.18 20.3203 145 27.5 145H50.5" stroke="#72BF44" stroke-width="3"/>
</g>
<g filter="url(#filter3_d_4585_65986)">
<path d="M124.5 146H146.5C153.68 146 159.5 140.18 159.5 133V110" stroke="#72BF44" stroke-width="3"/>
</g>
<mask id="mask0_4585_65986" style="mask-type:alpha" maskUnits="userSpaceOnUse" x="43" y="39" width="87" height="86">
<path d="M126.52 85.3963C125.916 78.6087 124.92 77.2868 124.543 76.7896C123.678 75.6407 122.294 74.8899 120.83 74.1021C120.747 74.0583 120.675 73.9959 120.621 73.9197C120.566 73.8435 120.53 73.7557 120.515 73.6632C120.5 73.5707 120.507 73.476 120.535 73.3866C120.563 73.2972 120.612 73.2155 120.677 73.148C120.948 72.873 121.157 72.5424 121.288 72.1791C121.419 71.8158 121.47 71.4283 121.438 71.0434C121.375 70.3608 121.057 69.7269 120.548 69.2673C120.04 68.8078 119.377 68.5562 118.691 68.5625H116.071C115.959 68.5632 115.847 68.5705 115.735 68.5843C115.659 68.5512 115.579 68.5247 115.498 68.5054C113.946 65.225 111.822 60.7335 107.417 58.5415C100.885 55.293 88.8518 55.125 86.5002 55.125C84.1487 55.125 72.1154 55.293 65.5915 58.5364C61.1873 60.7284 59.0625 65.2199 57.5105 68.5004L57.4971 68.5272C57.4197 68.5381 57.3436 68.5573 57.2703 68.5843C57.1588 68.5705 57.0467 68.5632 56.9344 68.5625H54.309C53.6235 68.5562 52.9607 68.8078 52.452 69.2673C51.9433 69.7269 51.6259 70.3608 51.5627 71.0434C51.5329 71.4275 51.5863 71.8134 51.7194 72.1749C51.8524 72.5364 52.062 72.8649 52.3337 73.138C52.3987 73.2055 52.4471 73.2871 52.4752 73.3765C52.5032 73.4659 52.5101 73.5606 52.4953 73.6531C52.4804 73.7456 52.4443 73.8335 52.3898 73.9096C52.3352 73.9858 52.2637 74.0482 52.1808 74.092C50.7162 74.8848 49.3254 75.6357 48.4671 76.7795C48.0908 77.2834 47.0964 78.5986 46.4901 85.3863C46.1541 89.2059 46.1037 93.1598 46.3674 95.7062C46.9201 100.997 47.9564 104.195 48.0001 104.328C48.1591 104.811 48.4519 105.239 48.8443 105.562C49.2368 105.885 49.7129 106.09 50.2173 106.154V106.188C50.2173 106.9 50.5004 107.584 51.0044 108.088C51.5084 108.592 52.192 108.875 52.9048 108.875H62.311C63.0238 108.875 63.7074 108.592 64.2114 108.088C64.7154 107.584 64.9985 106.9 64.9985 106.188C66.4448 106.188 67.4509 105.929 68.5175 105.653C70.0574 105.238 71.6314 104.962 73.2206 104.829C78.3453 104.34 83.4415 104.172 86.5002 104.172C89.4968 104.172 94.818 104.34 99.9512 104.829C101.547 104.963 103.127 105.24 104.673 105.657C105.694 105.919 106.663 106.161 108.005 106.186C108.005 106.899 108.288 107.582 108.792 108.086C109.296 108.59 109.98 108.873 110.693 108.873H120.099C120.812 108.873 121.495 108.59 121.999 108.086C122.503 107.582 122.787 106.899 122.787 106.186V106.166C123.292 106.103 123.77 105.899 124.163 105.575C124.557 105.252 124.851 104.824 125.01 104.34C125.054 104.207 126.09 101.009 126.643 95.718C126.907 93.1699 126.86 89.2227 126.52 85.3963ZM62.3682 70.7982C63.7119 67.9427 65.2488 64.711 67.985 63.3488C71.939 61.3802 80.1342 60.4933 86.5002 60.4933C92.8662 60.4933 101.061 61.3734 105.015 63.3488C107.752 64.711 109.282 67.9444 110.632 70.7982L110.8 71.1627C110.898 71.3702 110.942 71.5994 110.926 71.8284C110.911 72.0575 110.837 72.2787 110.712 72.4711C110.586 72.6634 110.414 72.8205 110.211 72.9272C110.007 73.034 109.78 73.0869 109.551 73.0809C103.969 72.9297 92.2112 72.4459 86.5002 72.4459C80.7893 72.4459 69.0315 72.9414 63.4415 73.0926C63.212 73.0986 62.9848 73.0457 62.7815 72.939C62.5783 72.8322 62.4058 72.6752 62.2804 72.4828C62.1551 72.2905 62.0812 72.0692 62.0657 71.8402C62.0501 71.6111 62.0936 71.3819 62.1918 71.1744C62.2506 71.0501 62.3127 70.9241 62.3682 70.7982ZM64.372 84.1735C61.4826 84.5213 58.5748 84.6929 55.6645 84.6875C53.884 84.6875 52.0482 84.1836 51.7072 82.598C51.4737 81.5314 51.4989 80.9317 51.6249 80.3287C51.7307 79.8164 51.8987 79.4435 52.7385 79.3125C54.9221 78.9766 56.1432 79.3982 59.7176 80.4513C62.0876 81.1484 63.7976 82.0773 64.7718 82.813C65.2606 83.1758 65.0002 84.1231 64.372 84.1735ZM101.557 97.947C99.3465 98.1989 94.9255 98.1065 86.5506 98.1065C78.1757 98.1065 73.7564 98.1989 71.546 97.947C69.2649 97.6933 66.3574 95.5366 68.3428 93.615C69.6647 92.3486 72.7486 91.4012 76.8555 90.8687C80.9623 90.3363 82.7008 90.0625 86.5338 90.0625C90.3669 90.0625 91.929 90.2305 96.2122 90.8704C100.495 91.5104 103.732 92.4695 104.725 93.6167C106.536 95.6727 103.836 97.6799 101.557 97.957V97.947ZM121.293 82.5963C120.957 84.1886 119.11 84.6858 117.336 84.6858C114.37 84.6865 111.406 84.5149 108.46 84.1718C107.946 84.1231 107.708 83.2211 108.229 82.8113C109.188 82.0571 110.916 81.1467 113.283 80.4496C116.857 79.3965 118.918 78.9749 120.689 79.3259C121.12 79.4116 121.349 79.8752 121.376 80.1658C121.494 80.9749 121.466 81.7987 121.293 82.598V82.5963Z" fill="#72BF44"/>
</mask>
<g mask="url(#mask0_4585_65986)">
<path d="M37.5 -70H137.5V82C98.4476 82 76.5524 82 37.5 82V-70Z" fill="#72BF44"/>
</g>
<path d="M123.746 77.393L123.745 77.3911C123.036 76.4505 121.869 75.7968 120.356 74.9828C120.139 74.8668 119.951 74.7023 119.808 74.5021C119.663 74.2999 119.567 74.0669 119.528 73.8213M123.746 77.393L66.037 59.4317C69.1313 57.8935 73.6204 57.0539 77.7185 56.6086C81.7866 56.1665 85.3434 56.125 86.5002 56.125C87.657 56.125 91.2137 56.1665 95.2829 56.6092C99.3819 57.0551 103.873 57.8959 106.972 59.4367C111.02 61.4515 113.019 65.604 114.594 68.9331L114.8 69.3667L115.266 69.4781C115.291 69.4839 115.314 69.4918 115.337 69.5017L115.588 69.6104L115.859 69.5767C115.93 69.5678 116.002 69.563 116.074 69.5625L118.691 69.5625L118.701 69.5625C119.135 69.5585 119.556 69.718 119.878 70.0094C120.2 70.2998 120.401 70.7001 120.442 71.1314C120.461 71.3713 120.429 71.6127 120.347 71.8391C120.265 72.0666 120.135 72.2736 119.965 72.4459L119.965 72.4459L119.957 72.4543C119.784 72.6334 119.656 72.8501 119.581 73.0873L119.581 73.0874C119.507 73.3246 119.489 73.5759 119.528 73.8213M123.746 77.393C123.752 77.4005 123.758 77.4086 123.765 77.4174C124.006 77.7307 124.942 78.9464 125.524 85.4847C125.861 89.2756 125.903 93.1536 125.648 95.6151C125.105 100.821 124.087 103.947 124.061 104.027C123.96 104.331 123.776 104.6 123.529 104.803C123.282 105.006 122.982 105.134 122.664 105.173L121.787 105.281V106.166V106.186C121.787 106.633 121.609 107.063 121.292 107.379C120.976 107.696 120.547 107.873 120.099 107.873H110.693C110.245 107.873 109.816 107.696 109.5 107.379C109.183 107.063 109.005 106.633 109.005 106.186V105.204L108.024 105.186C106.808 105.163 105.936 104.948 104.927 104.69C103.327 104.259 101.692 103.972 100.041 103.833C94.8731 103.341 89.5225 103.172 86.5002 103.172C83.4146 103.172 78.289 103.341 73.131 103.833C71.486 103.971 69.8567 104.257 68.2626 104.686C67.2072 104.959 66.3069 105.188 64.9985 105.188H63.9985V106.188C63.9985 106.635 63.8208 107.064 63.5043 107.381C63.1878 107.697 62.7586 107.875 62.311 107.875H52.9048C52.4572 107.875 52.028 107.697 51.7115 107.381C51.3951 107.064 51.2173 106.635 51.2173 106.188V106.154V105.272M123.746 77.393L51.2173 105.272M119.528 73.8213L120.515 73.6632M119.528 73.8213C119.528 73.8214 119.528 73.8214 119.528 73.8214L120.515 73.6632M120.515 73.6632C120.53 73.7557 120.566 73.8435 120.621 73.9197C120.675 73.9959 120.747 74.0583 120.83 74.1021M120.515 73.6632L120.83 74.1021M120.83 74.1021C122.294 74.8899 123.678 75.6407 124.543 76.7896L120.83 74.1021ZM58.4098 68.9379L58.4049 68.9476L58.3915 68.9745L58.1565 69.4443L57.6364 69.5175C57.6297 69.5184 57.623 69.5201 57.6167 69.5224L57.3883 69.6068L57.1467 69.5767C57.0752 69.5678 57.0031 69.563 56.931 69.5625H54.309H54.2998L54.2998 69.5625C53.8652 69.5585 53.4449 69.718 53.1223 70.0094C52.8016 70.2991 52.6008 70.6982 52.5592 71.1282C52.5417 71.3663 52.5753 71.6054 52.6578 71.8295C52.7412 72.0559 52.8724 72.2616 53.0426 72.4326L53.0483 72.4384L53.0539 72.4442C53.2264 72.6233 53.3549 72.84 53.4293 73.0773C53.5038 73.3145 53.522 73.5658 53.4827 73.8113L52.4953 73.6531L53.4827 73.8113C53.4433 74.0568 53.3475 74.2899 53.2027 74.492C53.059 74.6925 52.8711 74.8572 52.6535 74.9733C51.1363 75.7945 49.9675 76.4461 49.2669 77.3797L48.4671 76.7795L49.2683 77.3778C49.2621 77.3862 49.2552 77.3952 49.2477 77.4051C48.9997 77.7309 48.0687 78.9538 47.4862 85.4745C47.1533 89.2596 47.1075 93.1438 47.3621 95.603L58.4098 68.9379ZM58.4098 68.9379L58.4144 68.928M58.4098 68.9379L58.4144 68.928M58.4144 68.928C59.9894 65.5991 61.9889 61.4467 66.0367 59.4319L58.4144 68.928ZM51.2173 105.272L50.3421 105.162M51.2173 105.272L50.3421 105.162M50.3421 105.162C50.0254 105.122 49.7264 104.993 49.48 104.79C49.2336 104.587 49.0499 104.319 48.95 104.015L50.3421 105.162ZM61.4579 70.3838L61.4633 70.3724C62.1301 68.9554 62.8806 67.3649 63.8236 65.957C64.7686 64.5459 65.9554 63.2421 67.5394 62.4536C69.6664 61.3945 72.8361 60.6637 76.1994 60.1925C79.5889 59.7176 83.2758 59.4933 86.5002 59.4933C89.7243 59.4933 93.4112 59.7158 96.8008 60.1899C100.164 60.6603 103.335 61.3912 105.462 62.4542C107.046 63.243 108.231 64.5474 109.175 65.9581C110.109 67.3552 110.856 68.9328 111.521 70.3393L111.536 70.3704L111.541 70.3796L111.704 70.7348C111.705 70.7366 111.706 70.7383 111.707 70.7401C111.876 71.1006 111.951 71.4985 111.924 71.896C111.897 72.2955 111.768 72.6814 111.549 73.0169L110.738 72.4881L111.549 73.017C111.331 73.3524 111.03 73.6263 110.676 73.8125C110.321 73.9987 109.925 74.091 109.524 74.0805L109.524 74.0805C107.796 74.0337 105.491 73.9556 102.961 73.87C97.2699 73.6772 90.4423 73.4459 86.5002 73.4459C82.6032 73.4459 75.8878 73.6774 70.2339 73.8723C67.6261 73.9621 65.244 74.0442 63.4685 74.0923L63.4676 74.0923C63.0673 74.1027 62.671 74.0105 62.3165 73.8243L62.7815 72.939L62.3165 73.8243C61.962 73.6381 61.6611 73.3642 61.4426 73.0287L62.2804 72.4828L61.4426 73.0287C61.224 72.6932 61.095 72.3073 61.0679 71.9078C61.0409 71.5084 61.1166 71.1087 61.2878 70.7469L61.4579 70.3838ZM61.4579 70.3838L61.4528 70.3954M61.4579 70.3838L61.4528 70.3954M61.4528 70.3954C61.4195 70.4713 61.3859 70.5413 61.3457 70.6254M61.4528 70.3954L61.3457 70.6254M109.551 73.0809C109.78 73.0869 110.007 73.034 110.211 72.9272C110.414 72.8205 110.586 72.6634 110.712 72.4711C110.837 72.2787 110.911 72.0575 110.926 71.8284L109.551 73.0809ZM109.551 73.0809C107.839 73.0345 105.546 72.9568 103.024 72.8715M109.551 73.0809L103.024 72.8715M52.5844 78.3244L52.5864 78.3241C54.8704 77.9727 56.2875 78.3926 59.3219 79.2915C59.5392 79.3559 59.7649 79.4228 59.9998 79.492C59.9999 79.492 60.0001 79.4921 60.0002 79.4921L59.7176 80.4513L52.5844 78.3244ZM52.5844 78.3244C52.0402 78.4093 51.541 78.599 51.1715 78.9995C50.8161 79.3847 50.7052 79.838 50.6458 80.1253C50.4872 80.8851 50.4714 81.6281 50.7299 82.81C50.9859 83.9975 51.8119 84.7357 52.7374 85.1501C53.6387 85.5535 54.6985 85.6874 55.6637 85.6875M52.5844 78.3244L55.6637 85.6875M61.3457 70.6254C61.3279 70.6625 61.3089 70.7023 61.2879 70.7466L61.3457 70.6254ZM55.6637 85.6875C58.6088 85.6929 61.5516 85.5195 64.4758 85.1682C65.3155 85.0894 65.7953 84.434 65.9522 83.8854C66.1082 83.3401 66.0518 82.5206 65.3715 82.0128L55.6637 85.6875ZM103.024 72.8715C97.3253 72.6785 90.4596 72.4459 86.5002 72.4459M103.024 72.8715L86.5002 72.4459M86.5002 72.4459C82.5859 72.4459 75.831 72.6787 70.1683 72.8739M86.5002 72.4459L70.1683 72.8739M70.1683 72.8739C67.5691 72.9634 65.2001 73.0451 63.4415 73.0926L70.1683 72.8739ZM91.7575 99.1162C95.9033 99.1285 98.7108 99.1368 100.557 99.0313V99.086L101.678 98.9497C103.01 98.7877 104.488 98.1293 105.409 97.1327C105.879 96.624 106.257 95.967 106.312 95.1938C106.368 94.3985 106.071 93.6341 105.478 92.9591C105.111 92.5362 104.597 92.192 104.034 91.9036C103.459 91.6089 102.771 91.3419 102.003 91.0997C100.467 90.6151 98.5311 90.2058 96.3599 89.8814C92.0457 89.2368 90.4316 89.0625 86.5338 89.0625C82.9603 89.0625 81.1499 89.2992 77.7287 89.7465C77.4096 89.7882 77.0766 89.8317 76.7269 89.877C74.6353 90.1482 72.7751 90.5284 71.2513 91.0138C69.7516 91.4915 68.4767 92.1019 67.651 92.8929L67.6473 92.8965C66.9857 93.5368 66.6365 94.3031 66.6868 95.1277C66.7348 95.9151 67.1371 96.583 67.6165 97.0921C68.56 98.0939 70.0837 98.7898 71.4327 98.9405C73.1862 99.1404 76.2572 99.1313 81.3438 99.1162C82.8873 99.1116 84.6164 99.1065 86.5506 99.1065C88.4848 99.1065 90.2139 99.1116 91.7575 99.1162ZM108.353 85.1661C111.335 85.513 114.334 85.6865 117.336 85.6858H117.336C118.297 85.6858 119.358 85.5539 120.261 85.1516C121.187 84.739 122.016 84.0012 122.27 82.8094L122.271 82.8094C122.467 81.9001 122.5 80.9631 122.368 80.0423C122.333 79.7259 122.206 79.385 122.002 79.0943C121.785 78.7855 121.42 78.4515 120.883 78.3451L120.883 78.345C118.835 77.9389 116.54 78.4474 113 79.4904C110.549 80.2123 108.696 81.1715 107.611 82.0252L107.61 82.0255C106.983 82.519 106.861 83.2701 106.977 83.8305C107.083 84.3367 107.492 85.0774 108.353 85.1661ZM48.9499 104.015C48.9224 103.932 47.9055 100.805 47.3621 95.6032L48.9499 104.015Z" stroke="#72BF44" stroke-width="2"/>
<path d="M30.5 82C74.6292 82 99.3708 82 143.5 82" stroke="white" stroke-opacity="0.87"/>
<defs>
<filter id="filter0_d_4585_65986" x="5" y="9.5" width="56.5" height="57.5" filterUnits="userSpaceOnUse" color-interpolation-filters="sRGB">
<feFlood flood-opacity="0" result="BackgroundImageFix"/>
<feColorMatrix in="SourceAlpha" type="matrix" values="0 0 0 0 0 0 0 0 0 0 0 0 0 0 0 0 0 0 127 0" result="hardAlpha"/>
<feOffset dx="2" dy="3"/>
<feGaussianBlur stdDeviation="5"/>
<feComposite in2="hardAlpha" operator="out"/>
<feColorMatrix type="matrix" values="0 0 0 0 0.341 0 0 0 0 0.775 0 0 0 0 0 0 0 0 0.2 0"/>
<feBlend mode="normal" in2="BackgroundImageFix" result="effect1_dropShadow_4585_65986"/>
<feBlend mode="normal" in="SourceGraphic" in2="effect1_dropShadow_4585_65986" result="shape"/>
</filter>
<filter id="filter1_d_4585_65986" x="115.5" y="9.5" width="57.5" height="56.5" filterUnits="userSpaceOnUse" color-interpolation-filters="sRGB">
<feFlood flood-opacity="0" result="BackgroundImageFix"/>
<feColorMatrix in="SourceAlpha" type="matrix" values="0 0 0 0 0 0 0 0 0 0 0 0 0 0 0 0 0 0 127 0" result="hardAlpha"/>
<feOffset dx="2" dy="3"/>
<feGaussianBlur stdDeviation="5"/>
<feComposite in2="hardAlpha" operator="out"/>
<feColorMatrix type="matrix" values="0 0 0 0 0.341 0 0 0 0 0.775 0 0 0 0 0 0 0 0 0.3 0"/>
<feBlend mode="normal" in2="BackgroundImageFix" result="effect1_dropShadow_4585_65986"/>
<feBlend mode="normal" in="SourceGraphic" in2="effect1_dropShadow_4585_65986" result="shape"/>
</filter>
<filter id="filter2_d_4585_65986" x="5" y="103" width="57.5" height="56.5" filterUnits="userSpaceOnUse" color-interpolation-filters="sRGB">
<feFlood flood-opacity="0" result="BackgroundImageFix"/>
<feColorMatrix in="SourceAlpha" type="matrix" values="0 0 0 0 0 0 0 0 0 0 0 0 0 0 0 0 0 0 127 0" result="hardAlpha"/>
<feOffset dx="2" dy="3"/>
<feGaussianBlur stdDeviation="5"/>
<feComposite in2="hardAlpha" operator="out"/>
<feColorMatrix type="matrix" values="0 0 0 0 0.341 0 0 0 0 0.775 0 0 0 0 0 0 0 0 0.3 0"/>
<feBlend mode="normal" in2="BackgroundImageFix" result="effect1_dropShadow_4585_65986"/>
<feBlend mode="normal" in="SourceGraphic" in2="effect1_dropShadow_4585_65986" result="shape"/>
</filter>
<filter id="filter3_d_4585_65986" x="116.5" y="103" width="56.5" height="57.5" filterUnits="userSpaceOnUse" color-interpolation-filters="sRGB">
<feFlood flood-opacity="0" result="BackgroundImageFix"/>
<feColorMatrix in="SourceAlpha" type="matrix" values="0 0 0 0 0 0 0 0 0 0 0 0 0 0 0 0 0 0 127 0" result="hardAlpha"/>
<feOffset dx="2" dy="3"/>
<feGaussianBlur stdDeviation="5"/>
<feComposite in2="hardAlpha" operator="out"/>
<feColorMatrix type="matrix" values="0 0 0 0 0.341 0 0 0 0 0.775 0 0 0 0 0 0 0 0 0.3 0"/>
<feBlend mode="normal" in2="BackgroundImageFix" result="effect1_dropShadow_4585_65986"/>
<feBlend mode="normal" in="SourceGraphic" in2="effect1_dropShadow_4585_65986" result="shape"/>
</filter>
</defs>
</svg>
